REM MD5 f0dbc3893e07b80266c51f874cc8c795
FILE "Official U.S. PlayStation Magazine Demo Disc 47 (USA).bin" BINARY
  TRACK 01 MODE2/2352
    INDEX 01 00:00:00
  TRACK 02 AUDIO
    INDEX 00 49:19:73
    INDEX 01 49:21:73
  TRACK 03 AUDIO
    INDEX 00 53:03:36
    INDEX 01 53:05:36
REM LEADOUT 53:11:32
